<svg width="59" height="10" viewBox="0 0 59 10" fill="none" xmlns="http://www.w3.org/2000/svg">
<path d="M4.74315 0.282235C4.92887 -0.094078 5.46549 -0.0940786 5.65121 0.282234L6.86499 2.74162C6.93874 2.89106 7.0813 2.99463 7.24621 3.0186L9.9603 3.41298C10.3756 3.47332 10.5414 3.98367 10.2409 4.27659L8.27697 6.19095C8.15764 6.30727 8.10319 6.47486 8.13136 6.6391L8.59498 9.34223C8.66592 9.75584 8.23179 10.0713 7.86035 9.87597L5.43279 8.59973C5.28529 8.52218 5.10907 8.52218 4.96157 8.59973L2.53401 9.87597C2.16257 10.0713 1.72844 9.75584 1.79938 9.34223L2.263 6.6391C2.29117 6.47486 2.23672 6.30727 2.11739 6.19095L0.153453 4.27659C-0.147051 3.98367 0.0187706 3.47332 0.434057 3.41298L3.14815 3.0186C3.31306 2.99463 3.45562 2.89106 3.52937 2.74162L4.74315 0.282235ZM16.8946 0.282235C17.0803 -0.094078 17.6169 -0.0940786 17.8027 0.282234L19.0164 2.74162C19.0902 2.89106 19.2327 2.99463 19.3977 3.0186L22.1118 3.41298C22.527 3.47332 22.6929 3.98367 22.3924 4.27659L20.4284 6.19095C20.3091 6.30727 20.2546 6.47486 20.2828 6.6391L20.7464 9.34223C20.8174 9.75584 20.3832 10.0713 20.0118 9.87597L17.5842 8.59973C17.4367 8.52218 17.2605 8.52218 17.113 8.59973L14.6855 9.87597C14.314 10.0713 13.8799 9.75584 13.9508 9.34223L14.4145 6.6391C14.4426 6.47486 14.3882 6.30727 14.2688 6.19095L12.3049 4.27659C12.0044 3.98367 12.1702 3.47332 12.5855 3.41298L15.2996 3.0186C15.4645 2.99463 15.6071 2.89106 15.6808 2.74162L16.8946 0.282235ZM29.0461 0.282235C29.2318 -0.094078 29.7684 -0.0940786 29.9541 0.282234L31.1679 2.74162C31.2416 2.89106 31.3842 2.99463 31.5491 3.0186L34.2632 3.41298C34.6785 3.47332 34.8443 3.98367 34.5438 4.27659L32.5799 6.19095C32.4605 6.30727 32.4061 6.47486 32.4343 6.6391L32.8979 9.34223C32.9688 9.75584 32.5347 10.0713 32.1632 9.87597L29.7357 8.59973C29.5882 8.52218 29.412 8.52218 29.2645 8.59973L26.8369 9.87597C26.4655 10.0713 26.0313 9.75584 26.1023 9.34223L26.5659 6.6391C26.5941 6.47486 26.5396 6.30727 26.4203 6.19095L24.4564 4.27659C24.1559 3.98367 24.3217 3.47332 24.737 3.41298L27.4511 3.0186C27.616 2.99463 27.7585 2.89106 27.8323 2.74162L29.0461 0.282235ZM41.1975 0.282235C41.3832 -0.094078 41.9198 -0.0940786 42.1056 0.282234L43.3193 2.74162C43.3931 2.89106 43.5357 2.99463 43.7006 3.0186L46.4147 3.41298C46.8299 3.47332 46.9958 3.98367 46.6953 4.27659L44.7313 6.19095C44.612 6.30727 44.5575 6.47486 44.5857 6.6391L45.0493 9.34223C45.1203 9.75584 44.6861 10.0713 44.3147 9.87597L41.8871 8.59973C41.7396 8.52218 41.5634 8.52218 41.4159 8.59973L38.9884 9.87597C38.6169 10.0713 38.1828 9.75584 38.2537 9.34223L38.7174 6.6391C38.7455 6.47486 38.6911 6.30727 38.5717 6.19095L36.6078 4.27659C36.3073 3.98367 36.4731 3.47332 36.8884 3.41298L39.6025 3.0186C39.7674 2.99463 39.91 2.89106 39.9837 2.74162L41.1975 0.282235ZM53.349 0.282235C53.5347 -0.094078 54.0713 -0.0940786 54.257 0.282234L55.4708 2.74162C55.5445 2.89106 55.6871 2.99463 55.852 3.0186L58.5661 3.41298C58.9814 3.47332 59.1472 3.98367 58.8467 4.27659L56.8828 6.19095C56.7634 6.30727 56.709 6.47486 56.7372 6.6391L57.2008 9.34223C57.2717 9.75584 56.8376 10.0713 56.4661 9.87597L54.0386 8.59973C53.8911 8.52218 53.7149 8.52218 53.5674 8.59973L51.1398 9.87597C50.7684 10.0713 50.3342 9.75584 50.4052 9.34223L50.8688 6.6391C50.897 6.47486 50.8425 6.30727 50.7232 6.19095L48.7593 4.27659C48.4588 3.98367 48.6246 3.47332 49.0399 3.41298L51.754 3.0186C51.9189 2.99463 52.0614 2.89106 52.1352 2.74162L53.349 0.282235Z" fill="#FFC700"/>
<path d="M4.74315 0.282235C4.92887 -0.094078 5.46549 -0.0940786 5.65121 0.282234L6.86499 2.74162C6.93874 2.89106 7.0813 2.99463 7.24621 3.0186L9.9603 3.41298C10.3756 3.47332 10.5414 3.98367 10.2409 4.27659L8.27697 6.19095C8.15764 6.30727 8.10319 6.47486 8.13136 6.6391L8.59498 9.34223C8.66592 9.75584 8.23179 10.0713 7.86035 9.87597L5.43279 8.59973C5.28529 8.52218 5.10907 8.52218 4.96157 8.59973L2.53401 9.87597C2.16257 10.0713 1.72844 9.75584 1.79938 9.34223L2.263 6.6391C2.29117 6.47486 2.23672 6.30727 2.11739 6.19095L0.153453 4.27659C-0.147051 3.98367 0.0187706 3.47332 0.434057 3.41298L3.14815 3.0186C3.31306 2.99463 3.45562 2.89106 3.52937 2.74162L4.74315 0.282235ZM16.8946 0.282235C17.0803 -0.094078 17.6169 -0.0940786 17.8027 0.282234L19.0164 2.74162C19.0902 2.89106 19.2327 2.99463 19.3977 3.0186L22.1118 3.41298C22.527 3.47332 22.6929 3.98367 22.3924 4.27659L20.4284 6.19095C20.3091 6.30727 20.2546 6.47486 20.2828 6.6391L20.7464 9.34223C20.8174 9.75584 20.3832 10.0713 20.0118 9.87597L17.5842 8.59973C17.4367 8.52218 17.2605 8.52218 17.113 8.59973L14.6855 9.87597C14.314 10.0713 13.8799 9.75584 13.9508 9.34223L14.4145 6.6391C14.4426 6.47486 14.3882 6.30727 14.2688 6.19095L12.3049 4.27659C12.0044 3.98367 12.1702 3.47332 12.5855 3.41298L15.2996 3.0186C15.4645 2.99463 15.6071 2.89106 15.6808 2.74162L16.8946 0.282235ZM29.0461 0.282235C29.2318 -0.094078 29.7684 -0.0940786 29.9541 0.282234L31.1679 2.74162C31.2416 2.89106 31.3842 2.99463 31.5491 3.0186L34.2632 3.41298C34.6785 3.47332 34.8443 3.98367 34.5438 4.27659L32.5799 6.19095C32.4605 6.30727 32.4061 6.47486 32.4343 6.6391L32.8979 9.34223C32.9688 9.75584 32.5347 10.0713 32.1632 9.87597L29.7357 8.59973C29.5882 8.52218 29.412 8.52218 29.2645 8.59973L26.8369 9.87597C26.4655 10.0713 26.0313 9.75584 26.1023 9.34223L26.5659 6.6391C26.5941 6.47486 26.5396 6.30727 26.4203 6.19095L24.4564 4.27659C24.1559 3.98367 24.3217 3.47332 24.737 3.41298L27.4511 3.0186C27.616 2.99463 27.7585 2.89106 27.8323 2.74162L29.0461 0.282235ZM41.1975 0.282235C41.3832 -0.094078 41.9198 -0.0940786 42.1056 0.282234L43.3193 2.74162C43.3931 2.89106 43.5357 2.99463 43.7006 3.0186L46.4147 3.41298C46.8299 3.47332 46.9958 3.98367 46.6953 4.27659L44.7313 6.19095C44.612 6.30727 44.5575 6.47486 44.5857 6.6391L45.0493 9.34223C45.1203 9.75584 44.6861 10.0713 44.3147 9.87597L41.8871 8.59973C41.7396 8.52218 41.5634 8.52218 41.4159 8.59973L38.9884 9.87597C38.6169 10.0713 38.1828 9.75584 38.2537 9.34223L38.7174 6.6391C38.7455 6.47486 38.6911 6.30727 38.5717 6.19095L36.6078 4.27659C36.3073 3.98367 36.4731 3.47332 36.8884 3.41298L39.6025 3.0186C39.7674 2.99463 39.91 2.89106 39.9837 2.74162L41.1975 0.282235ZM53.349 0.282235C53.5347 -0.094078 54.0713 -0.0940786 54.257 0.282234L55.4708 2.74162C55.5445 2.89106 55.6871 2.99463 55.852 3.0186L58.5661 3.41298C58.9814 3.47332 59.1472 3.98367 58.8467 4.27659L56.8828 6.19095C56.7634 6.30727 56.709 6.47486 56.7372 6.6391L57.2008 9.34223C57.2717 9.75584 56.8376 10.0713 56.4661 9.87597L54.0386 8.59973C53.8911 8.52218 53.7149 8.52218 53.5674 8.59973L51.1398 9.87597C50.7684 10.0713 50.3342 9.75584 50.4052 9.34223L50.8688 6.6391C50.897 6.47486 50.8425 6.30727 50.7232 6.19095L48.7593 4.27659C48.4588 3.98367 48.6246 3.47332 49.0399 3.41298L51.754 3.0186C51.9189 2.99463 52.0614 2.89106 52.1352 2.74162L53.349 0.282235Z" fill="#FFC700"/>
<path d="M4.74315 0.282235C4.92887 -0.094078 5.46549 -0.0940786 5.65121 0.282234L6.86499 2.74162C6.93874 2.89106 7.0813 2.99463 7.24621 3.0186L9.9603 3.41298C10.3756 3.47332 10.5414 3.98367 10.2409 4.27659L8.27697 6.19095C8.15764 6.30727 8.10319 6.47486 8.13136 6.6391L8.59498 9.34223C8.66592 9.75584 8.23179 10.0713 7.86035 9.87597L5.43279 8.59973C5.28529 8.52218 5.10907 8.52218 4.96157 8.59973L2.53401 9.87597C2.16257 10.0713 1.72844 9.75584 1.79938 9.34223L2.263 6.6391C2.29117 6.47486 2.23672 6.30727 2.11739 6.19095L0.153453 4.27659C-0.147051 3.98367 0.0187706 3.47332 0.434057 3.41298L3.14815 3.0186C3.31306 2.99463 3.45562 2.89106 3.52937 2.74162L4.74315 0.282235ZM16.8946 0.282235C17.0803 -0.094078 17.6169 -0.0940786 17.8027 0.282234L19.0164 2.74162C19.0902 2.89106 19.2327 2.99463 19.3977 3.0186L22.1118 3.41298C22.527 3.47332 22.6929 3.98367 22.3924 4.27659L20.4284 6.19095C20.3091 6.30727 20.2546 6.47486 20.2828 6.6391L20.7464 9.34223C20.8174 9.75584 20.3832 10.0713 20.0118 9.87597L17.5842 8.59973C17.4367 8.52218 17.2605 8.52218 17.113 8.59973L14.6855 9.87597C14.314 10.0713 13.8799 9.75584 13.9508 9.34223L14.4145 6.6391C14.4426 6.47486 14.3882 6.30727 14.2688 6.19095L12.3049 4.27659C12.0044 3.98367 12.1702 3.47332 12.5855 3.41298L15.2996 3.0186C15.4645 2.99463 15.6071 2.89106 15.6808 2.74162L16.8946 0.282235ZM29.0461 0.282235C29.2318 -0.094078 29.7684 -0.0940786 29.9541 0.282234L31.1679 2.74162C31.2416 2.89106 31.3842 2.99463 31.5491 3.0186L34.2632 3.41298C34.6785 3.47332 34.8443 3.98367 34.5438 4.27659L32.5799 6.19095C32.4605 6.30727 32.4061 6.47486 32.4343 6.6391L32.8979 9.34223C32.9688 9.75584 32.5347 10.0713 32.1632 9.87597L29.7357 8.59973C29.5882 8.52218 29.412 8.52218 29.2645 8.59973L26.8369 9.87597C26.4655 10.0713 26.0313 9.75584 26.1023 9.34223L26.5659 6.6391C26.5941 6.47486 26.5396 6.30727 26.4203 6.19095L24.4564 4.27659C24.1559 3.98367 24.3217 3.47332 24.737 3.41298L27.4511 3.0186C27.616 2.99463 27.7585 2.89106 27.8323 2.74162L29.0461 0.282235ZM41.1975 0.282235C41.3832 -0.094078 41.9198 -0.0940786 42.1056 0.282234L43.3193 2.74162C43.3931 2.89106 43.5357 2.99463 43.7006 3.0186L46.4147 3.41298C46.8299 3.47332 46.9958 3.98367 46.6953 4.27659L44.7313 6.19095C44.612 6.30727 44.5575 6.47486 44.5857 6.6391L45.0493 9.34223C45.1203 9.75584 44.6861 10.0713 44.3147 9.87597L41.8871 8.59973C41.7396 8.52218 41.5634 8.52218 41.4159 8.59973L38.9884 9.87597C38.6169 10.0713 38.1828 9.75584 38.2537 9.34223L38.7174 6.6391C38.7455 6.47486 38.6911 6.30727 38.5717 6.19095L36.6078 4.27659C36.3073 3.98367 36.4731 3.47332 36.8884 3.41298L39.6025 3.0186C39.7674 2.99463 39.91 2.89106 39.9837 2.74162L41.1975 0.282235ZM53.349 0.282235C53.5347 -0.094078 54.0713 -0.0940786 54.257 0.282234L55.4708 2.74162C55.5445 2.89106 55.6871 2.99463 55.852 3.0186L58.5661 3.41298C58.9814 3.47332 59.1472 3.98367 58.8467 4.27659L56.8828 6.19095C56.7634 6.30727 56.709 6.47486 56.7372 6.6391L57.2008 9.34223C57.2717 9.75584 56.8376 10.0713 56.4661 9.87597L54.0386 8.59973C53.8911 8.52218 53.7149 8.52218 53.5674 8.59973L51.1398 9.87597C50.7684 10.0713 50.3342 9.75584 50.4052 9.34223L50.8688 6.6391C50.897 6.47486 50.8425 6.30727 50.7232 6.19095L48.7593 4.27659C48.4588 3.98367 48.6246 3.47332 49.0399 3.41298L51.754 3.0186C51.9189 2.99463 52.0614 2.89106 52.1352 2.74162L53.349 0.282235Z" fill="#FFC700"/>
<path d="M4.74315 0.282235C4.92887 -0.094078 5.46549 -0.0940786 5.65121 0.282234L6.86499 2.74162C6.93874 2.89106 7.0813 2.99463 7.24621 3.0186L9.9603 3.41298C10.3756 3.47332 10.5414 3.98367 10.2409 4.27659L8.27697 6.19095C8.15764 6.30727 8.10319 6.47486 8.13136 6.6391L8.59498 9.34223C8.66592 9.75584 8.23179 10.0713 7.86035 9.87597L5.43279 8.59973C5.28529 8.52218 5.10907 8.52218 4.96157 8.59973L2.53401 9.87597C2.16257 10.0713 1.72844 9.75584 1.79938 9.34223L2.263 6.6391C2.29117 6.47486 2.23672 6.30727 2.11739 6.19095L0.153453 4.27659C-0.147051 3.98367 0.0187706 3.47332 0.434057 3.41298L3.14815 3.0186C3.31306 2.99463 3.45562 2.89106 3.52937 2.74162L4.74315 0.282235ZM16.8946 0.282235C17.0803 -0.094078 17.6169 -0.0940786 17.8027 0.282234L19.0164 2.74162C19.0902 2.89106 19.2327 2.99463 19.3977 3.0186L22.1118 3.41298C22.527 3.47332 22.6929 3.98367 22.3924 4.27659L20.4284 6.19095C20.3091 6.30727 20.2546 6.47486 20.2828 6.6391L20.7464 9.34223C20.8174 9.75584 20.3832 10.0713 20.0118 9.87597L17.5842 8.59973C17.4367 8.52218 17.2605 8.52218 17.113 8.59973L14.6855 9.87597C14.314 10.0713 13.8799 9.75584 13.9508 9.34223L14.4145 6.6391C14.4426 6.47486 14.3882 6.30727 14.2688 6.19095L12.3049 4.27659C12.0044 3.98367 12.1702 3.47332 12.5855 3.41298L15.2996 3.0186C15.4645 2.99463 15.6071 2.89106 15.6808 2.74162L16.8946 0.282235ZM29.0461 0.282235C29.2318 -0.094078 29.7684 -0.0940786 29.9541 0.282234L31.1679 2.74162C31.2416 2.89106 31.3842 2.99463 31.5491 3.0186L34.2632 3.41298C34.6785 3.47332 34.8443 3.98367 34.5438 4.27659L32.5799 6.19095C32.4605 6.30727 32.4061 6.47486 32.4343 6.6391L32.8979 9.34223C32.9688 9.75584 32.5347 10.0713 32.1632 9.87597L29.7357 8.59973C29.5882 8.52218 29.412 8.52218 29.2645 8.59973L26.8369 9.87597C26.4655 10.0713 26.0313 9.75584 26.1023 9.34223L26.5659 6.6391C26.5941 6.47486 26.5396 6.30727 26.4203 6.19095L24.4564 4.27659C24.1559 3.98367 24.3217 3.47332 24.737 3.41298L27.4511 3.0186C27.616 2.99463 27.7585 2.89106 27.8323 2.74162L29.0461 0.282235ZM41.1975 0.282235C41.3832 -0.094078 41.9198 -0.0940786 42.1056 0.282234L43.3193 2.74162C43.3931 2.89106 43.5357 2.99463 43.7006 3.0186L46.4147 3.41298C46.8299 3.47332 46.9958 3.98367 46.6953 4.27659L44.7313 6.19095C44.612 6.30727 44.5575 6.47486 44.5857 6.6391L45.0493 9.34223C45.1203 9.75584 44.6861 10.0713 44.3147 9.87597L41.8871 8.59973C41.7396 8.52218 41.5634 8.52218 41.4159 8.59973L38.9884 9.87597C38.6169 10.0713 38.1828 9.75584 38.2537 9.34223L38.7174 6.6391C38.7455 6.47486 38.6911 6.30727 38.5717 6.19095L36.6078 4.27659C36.3073 3.98367 36.4731 3.47332 36.8884 3.41298L39.6025 3.0186C39.7674 2.99463 39.91 2.89106 39.9837 2.74162L41.1975 0.282235ZM53.349 0.282235C53.5347 -0.094078 54.0713 -0.0940786 54.257 0.282234L55.4708 2.74162C55.5445 2.89106 55.6871 2.99463 55.852 3.0186L58.5661 3.41298C58.9814 3.47332 59.1472 3.98367 58.8467 4.27659L56.8828 6.19095C56.7634 6.30727 56.709 6.47486 56.7372 6.6391L57.2008 9.34223C57.2717 9.75584 56.8376 10.0713 56.4661 9.87597L54.0386 8.59973C53.8911 8.52218 53.7149 8.52218 53.5674 8.59973L51.1398 9.87597C50.7684 10.0713 50.3342 9.75584 50.4052 9.34223L50.8688 6.6391C50.897 6.47486 50.8425 6.30727 50.7232 6.19095L48.7593 4.27659C48.4588 3.98367 48.6246 3.47332 49.0399 3.41298L51.754 3.0186C51.9189 2.99463 52.0614 2.89106 52.1352 2.74162L53.349 0.282235Z" fill="#FFC700"/>
<path d="M4.74315 0.282235C4.92887 -0.094078 5.46549 -0.0940786 5.65121 0.282234L6.86499 2.74162C6.93874 2.89106 7.0813 2.99463 7.24621 3.0186L9.9603 3.41298C10.3756 3.47332 10.5414 3.98367 10.2409 4.27659L8.27697 6.19095C8.15764 6.30727 8.10319 6.47486 8.13136 6.6391L8.59498 9.34223C8.66592 9.75584 8.23179 10.0713 7.86035 9.87597L5.43279 8.59973C5.28529 8.52218 5.10907 8.52218 4.96157 8.59973L2.53401 9.87597C2.16257 10.0713 1.72844 9.75584 1.79938 9.34223L2.263 6.6391C2.29117 6.47486 2.23672 6.30727 2.11739 6.19095L0.153453 4.27659C-0.147051 3.98367 0.0187706 3.47332 0.434057 3.41298L3.14815 3.0186C3.31306 2.99463 3.45562 2.89106 3.52937 2.74162L4.74315 0.282235ZM16.8946 0.282235C17.0803 -0.094078 17.6169 -0.0940786 17.8027 0.282234L19.0164 2.74162C19.0902 2.89106 19.2327 2.99463 19.3977 3.0186L22.1118 3.41298C22.527 3.47332 22.6929 3.98367 22.3924 4.27659L20.4284 6.19095C20.3091 6.30727 20.2546 6.47486 20.2828 6.6391L20.7464 9.34223C20.8174 9.75584 20.3832 10.0713 20.0118 9.87597L17.5842 8.59973C17.4367 8.52218 17.2605 8.52218 17.113 8.59973L14.6855 9.87597C14.314 10.0713 13.8799 9.75584 13.9508 9.34223L14.4145 6.6391C14.4426 6.47486 14.3882 6.30727 14.2688 6.19095L12.3049 4.27659C12.0044 3.98367 12.1702 3.47332 12.5855 3.41298L15.2996 3.0186C15.4645 2.99463 15.6071 2.89106 15.6808 2.74162L16.8946 0.282235ZM29.0461 0.282235C29.2318 -0.094078 29.7684 -0.0940786 29.9541 0.282234L31.1679 2.74162C31.2416 2.89106 31.3842 2.99463 31.5491 3.0186L34.2632 3.41298C34.6785 3.47332 34.8443 3.98367 34.5438 4.27659L32.5799 6.19095C32.4605 6.30727 32.4061 6.47486 32.4343 6.6391L32.8979 9.34223C32.9688 9.75584 32.5347 10.0713 32.1632 9.87597L29.7357 8.59973C29.5882 8.52218 29.412 8.52218 29.2645 8.59973L26.8369 9.87597C26.4655 10.0713 26.0313 9.75584 26.1023 9.34223L26.5659 6.6391C26.5941 6.47486 26.5396 6.30727 26.4203 6.19095L24.4564 4.27659C24.1559 3.98367 24.3217 3.47332 24.737 3.41298L27.4511 3.0186C27.616 2.99463 27.7585 2.89106 27.8323 2.74162L29.0461 0.282235ZM41.1975 0.282235C41.3832 -0.094078 41.9198 -0.0940786 42.1056 0.282234L43.3193 2.74162C43.3931 2.89106 43.5357 2.99463 43.7006 3.0186L46.4147 3.41298C46.8299 3.47332 46.9958 3.98367 46.6953 4.27659L44.7313 6.19095C44.612 6.30727 44.5575 6.47486 44.5857 6.6391L45.0493 9.34223C45.1203 9.75584 44.6861 10.0713 44.3147 9.87597L41.8871 8.59973C41.7396 8.52218 41.5634 8.52218 41.4159 8.59973L38.9884 9.87597C38.6169 10.0713 38.1828 9.75584 38.2537 9.34223L38.7174 6.6391C38.7455 6.47486 38.6911 6.30727 38.5717 6.19095L36.6078 4.27659C36.3073 3.98367 36.4731 3.47332 36.8884 3.41298L39.6025 3.0186C39.7674 2.99463 39.91 2.89106 39.9837 2.74162L41.1975 0.282235ZM53.349 0.282235C53.5347 -0.094078 54.0713 -0.0940786 54.257 0.282234L55.4708 2.74162C55.5445 2.89106 55.6871 2.99463 55.852 3.0186L58.5661 3.41298C58.9814 3.47332 59.1472 3.98367 58.8467 4.27659L56.8828 6.19095C56.7634 6.30727 56.709 6.47486 56.7372 6.6391L57.2008 9.34223C57.2717 9.75584 56.8376 10.0713 56.4661 9.87597L54.0386 8.59973C53.8911 8.52218 53.7149 8.52218 53.5674 8.59973L51.1398 9.87597C50.7684 10.0713 50.3342 9.75584 50.4052 9.34223L50.8688 6.6391C50.897 6.47486 50.8425 6.30727 50.7232 6.19095L48.7593 4.27659C48.4588 3.98367 48.6246 3.47332 49.0399 3.41298L51.754 3.0186C51.9189 2.99463 52.0614 2.89106 52.1352 2.74162L53.349 0.282235Z" fill="#FFC700"/>
</svg>
