<svg width="20" height="20" viewBox="0 0 20 20" fill="none" xmlns="http://www.w3.org/2000/svg">
<path fill-rule="evenodd" clip-rule="evenodd" d="M14.1355 14.9972C12.815 16.1214 11.1033 16.7998 9.23317 16.7998C5.05422 16.7998 1.6665 13.4121 1.6665 9.23317C1.6665 5.05422 5.05422 1.6665 9.23317 1.6665C13.4121 1.6665 16.7998 5.05422 16.7998 9.23317C16.7998 11.092 16.1296 12.7943 15.0175 14.1115L18.6495 17.7435L17.7657 18.6274L14.1355 14.9972ZM15.5498 9.23317C15.5498 12.7218 12.7218 15.5498 9.23317 15.5498C5.74457 15.5498 2.9165 12.7218 2.9165 9.23317C2.9165 5.74457 5.74457 2.9165 9.23317 2.9165C12.7218 2.9165 15.5498 5.74457 15.5498 9.23317Z" fill="black" fill-opacity="0.7"/>
</svg>
